<svg width="290" height="199" viewBox="0 0 290 199" fill="none" xmlns="http://www.w3.org/2000/svg">
<path d="M1.184 164V152.8H2.528V162.928H7.744V164H1.184ZM12.7825 164.192C12.0358 164.192 11.3638 164.021 10.7665 163.68C10.1692 163.339 9.6945 162.859 9.3425 162.24C9.00117 161.611 8.8305 160.875 8.8305 160.032C8.8305 159.189 9.0065 158.459 9.3585 157.84C9.7105 157.211 10.1852 156.725 10.7825 156.384C11.3905 156.043 12.0678 155.872 12.8145 155.872C13.5612 155.872 14.2332 156.043 14.8305 156.384C15.4278 156.725 15.8972 157.211 16.2385 157.84C16.5905 158.459 16.7665 159.189 16.7665 160.032C16.7665 160.875 16.5905 161.611 16.2385 162.24C15.8865 162.859 15.4065 163.339 14.7985 163.68C14.2012 164.021 13.5292 164.192 12.7825 164.192ZM12.7825 163.04C13.2412 163.04 13.6678 162.928 14.0625 162.704C14.4572 162.48 14.7772 162.144 15.0225 161.696C15.2678 161.248 15.3905 160.693 15.3905 160.032C15.3905 159.371 15.2678 158.816 15.0225 158.368C14.7878 157.92 14.4732 157.584 14.0785 157.36C13.6838 157.136 13.2625 157.024 12.8145 157.024C12.3558 157.024 11.9292 157.136 11.5345 157.36C11.1398 157.584 10.8198 157.92 10.5745 158.368C10.3292 158.816 10.2065 159.371 10.2065 160.032C10.2065 160.693 10.3292 161.248 10.5745 161.696C10.8198 162.144 11.1345 162.48 11.5185 162.704C11.9132 162.928 12.3345 163.04 12.7825 163.04ZM22.2513 164.192C21.5046 164.192 20.8326 164.021 20.2353 163.68C19.6379 163.339 19.1633 162.859 18.8113 162.24C18.4699 161.611 18.2993 160.875 18.2993 160.032C18.2993 159.189 18.4753 158.459 18.8273 157.84C19.1793 157.211 19.6539 156.725 20.2513 156.384C20.8593 156.043 21.5366 155.872 22.2833 155.872C23.0299 155.872 23.7019 156.043 24.2993 156.384C24.8966 156.725 25.3659 157.211 25.7073 157.84C26.0593 158.459 26.2353 159.189 26.2353 160.032C26.2353 160.875 26.0593 161.611 25.7073 162.24C25.3553 162.859 24.8753 163.339 24.2673 163.68C23.6699 164.021 22.9979 164.192 22.2513 164.192ZM22.2513 163.04C22.7099 163.04 23.1366 162.928 23.5313 162.704C23.9259 162.48 24.2459 162.144 24.4913 161.696C24.7366 161.248 24.8593 160.693 24.8593 160.032C24.8593 159.371 24.7366 158.816 24.4913 158.368C24.2566 157.92 23.9419 157.584 23.5473 157.36C23.1526 157.136 22.7313 157.024 22.2833 157.024C21.8246 157.024 21.3979 157.136 21.0033 157.36C20.6086 157.584 20.2886 157.92 20.0433 158.368C19.7979 158.816 19.6753 159.371 19.6753 160.032C19.6753 160.693 19.7979 161.248 20.0433 161.696C20.2886 162.144 20.6033 162.48 20.9873 162.704C21.3819 162.928 21.8033 163.04 22.2513 163.04ZM28.104 164V152.48H29.448V159.408L32.696 156.064H34.344L30.824 159.648L34.792 164H33.08L29.448 159.888V164H28.104ZM38.7378 164.192C37.7884 164.192 36.9991 163.952 36.3698 163.472C35.7404 162.992 35.3724 162.341 35.2658 161.52H36.6418C36.7271 161.936 36.9458 162.299 37.2978 162.608C37.6604 162.907 38.1458 163.056 38.7538 163.056C39.3191 163.056 39.7351 162.939 40.0018 162.704C40.2684 162.459 40.4018 162.171 40.4018 161.84C40.4018 161.36 40.2258 161.04 39.8738 160.88C39.5324 160.72 39.0471 160.576 38.4178 160.448C37.9911 160.363 37.5644 160.24 37.1378 160.08C36.7111 159.92 36.3538 159.696 36.0658 159.408C35.7778 159.109 35.6338 158.72 35.6338 158.24C35.6338 157.547 35.8898 156.981 36.4018 156.544C36.9244 156.096 37.6284 155.872 38.5138 155.872C39.3564 155.872 40.0444 156.085 40.5778 156.512C41.1218 156.928 41.4364 157.525 41.5218 158.304H40.1938C40.1404 157.899 39.9644 157.584 39.6658 157.36C39.3778 157.125 38.9884 157.008 38.4978 157.008C38.0178 157.008 37.6444 157.109 37.3778 157.312C37.1218 157.515 36.9938 157.781 36.9938 158.112C36.9938 158.432 37.1591 158.683 37.4898 158.864C37.8311 159.045 38.2898 159.2 38.8658 159.328C39.3564 159.435 39.8204 159.568 40.2578 159.728C40.7058 159.877 41.0684 160.107 41.3458 160.416C41.6338 160.715 41.7778 161.152 41.7778 161.728C41.7884 162.443 41.5164 163.035 40.9618 163.504C40.4178 163.963 39.6764 164.192 38.7378 164.192ZM47.9321 164V152.48H49.2761V164H47.9321ZM52.295 154.304C52.0283 154.304 51.8043 154.219 51.623 154.048C51.4523 153.867 51.367 153.643 51.367 153.376C51.367 153.12 51.4523 152.907 51.623 152.736C51.8043 152.565 52.0283 152.48 52.295 152.48C52.551 152.48 52.7697 152.565 52.951 152.736C53.1323 152.907 53.223 153.12 53.223 153.376C53.223 153.643 53.1323 153.867 52.951 154.048C52.7697 154.219 52.551 154.304 52.295 154.304ZM51.623 164V156.064H52.967V164H51.623ZM55.3071 164V152.48H56.6511V159.408L59.8991 156.064H61.5471L58.0271 159.648L61.9951 164H60.2831L56.6511 159.888V164H55.3071ZM66.3595 164.192C65.6022 164.192 64.9302 164.021 64.3435 163.68C63.7568 163.328 63.2928 162.843 62.9515 162.224C62.6208 161.605 62.4555 160.875 62.4555 160.032C62.4555 159.2 62.6208 158.475 62.9515 157.856C63.2822 157.227 63.7408 156.741 64.3275 156.4C64.9248 156.048 65.6128 155.872 66.3915 155.872C67.1595 155.872 67.8208 156.048 68.3755 156.4C68.9408 156.741 69.3728 157.195 69.6715 157.76C69.9702 158.325 70.1195 158.933 70.1195 159.584C70.1195 159.701 70.1142 159.819 70.1035 159.936C70.1035 160.053 70.1035 160.187 70.1035 160.336H63.7835C63.8155 160.944 63.9542 161.451 64.1995 161.856C64.4555 162.251 64.7702 162.549 65.1435 162.752C65.5275 162.955 65.9328 163.056 66.3595 163.056C66.9142 163.056 67.3782 162.928 67.7515 162.672C68.1248 162.416 68.3968 162.069 68.5675 161.632H69.8955C69.6822 162.368 69.2715 162.981 68.6635 163.472C68.0662 163.952 67.2982 164.192 66.3595 164.192ZM66.3595 157.008C65.7195 157.008 65.1488 157.205 64.6475 157.6C64.1568 157.984 63.8742 158.549 63.7995 159.296H68.7915C68.7595 158.581 68.5142 158.021 68.0555 157.616C67.5968 157.211 67.0315 157.008 66.3595 157.008ZM76.9993 167.52L78.9673 163.232H78.5033L75.3513 156.064H76.8073L79.4313 162.24L82.2153 156.064H83.6073L78.4073 167.52H76.9993ZM87.8919 164.192C87.1452 164.192 86.4732 164.021 85.8759 163.68C85.2785 163.339 84.8039 162.859 84.4519 162.24C84.1105 161.611 83.9399 160.875 83.9399 160.032C83.9399 159.189 84.1159 158.459 84.4679 157.84C84.8199 157.211 85.2945 156.725 85.8919 156.384C86.4999 156.043 87.1772 155.872 87.9239 155.872C88.6705 155.872 89.3425 156.043 89.9399 156.384C90.5372 156.725 91.0065 157.211 91.3479 157.84C91.6999 158.459 91.8759 159.189 91.8759 160.032C91.8759 160.875 91.6999 161.611 91.3479 162.24C90.9959 162.859 90.5159 163.339 89.9079 163.68C89.3105 164.021 88.6385 164.192 87.8919 164.192ZM87.8919 163.04C88.3505 163.04 88.7772 162.928 89.1719 162.704C89.5665 162.48 89.8865 162.144 90.1319 161.696C90.3772 161.248 90.4999 160.693 90.4999 160.032C90.4999 159.371 90.3772 158.816 90.1319 158.368C89.8972 157.92 89.5825 157.584 89.1879 157.36C88.7932 157.136 88.3719 157.024 87.9239 157.024C87.4652 157.024 87.0385 157.136 86.6439 157.36C86.2492 157.584 85.9292 157.92 85.6839 158.368C85.4385 158.816 85.3159 159.371 85.3159 160.032C85.3159 160.693 85.4385 161.248 85.6839 161.696C85.9292 162.144 86.2439 162.48 86.6279 162.704C87.0225 162.928 87.4439 163.04 87.8919 163.04ZM96.6406 164.192C95.702 164.192 94.9553 163.909 94.4006 163.344C93.846 162.768 93.5686 161.888 93.5686 160.704V156.064H94.9126V160.56C94.9126 162.213 95.59 163.04 96.9446 163.04C97.638 163.04 98.2086 162.795 98.6566 162.304C99.1153 161.803 99.3446 161.093 99.3446 160.176V156.064H100.689V164H99.4726L99.3766 162.576C99.1313 163.077 98.7633 163.472 98.2726 163.76C97.7926 164.048 97.2486 164.192 96.6406 164.192ZM107.135 164V152.48H108.479V157.424C108.746 156.933 109.125 156.555 109.615 156.288C110.106 156.011 110.639 155.872 111.215 155.872C112.133 155.872 112.869 156.16 113.423 156.736C113.978 157.301 114.255 158.176 114.255 159.36V164H112.927V159.504C112.927 157.851 112.261 157.024 110.927 157.024C110.234 157.024 109.653 157.275 109.183 157.776C108.714 158.267 108.479 158.971 108.479 159.888V164H107.135ZM118.932 164.192C118.27 164.192 117.721 164.08 117.284 163.856C116.846 163.632 116.521 163.333 116.308 162.96C116.094 162.587 115.988 162.181 115.988 161.744C115.988 160.933 116.297 160.309 116.916 159.872C117.534 159.435 118.377 159.216 119.444 159.216H121.588V159.12C121.588 158.427 121.406 157.904 121.044 157.552C120.681 157.189 120.196 157.008 119.588 157.008C119.065 157.008 118.612 157.141 118.228 157.408C117.854 157.664 117.62 158.043 117.524 158.544H116.148C116.201 157.968 116.393 157.483 116.724 157.088C117.065 156.693 117.486 156.395 117.988 156.192C118.489 155.979 119.022 155.872 119.588 155.872C120.697 155.872 121.529 156.171 122.084 156.768C122.649 157.355 122.932 158.139 122.932 159.12V164H121.732L121.652 162.576C121.428 163.024 121.097 163.408 120.66 163.728C120.233 164.037 119.657 164.192 118.932 164.192ZM119.14 163.056C119.652 163.056 120.089 162.923 120.452 162.656C120.825 162.389 121.108 162.043 121.3 161.616C121.492 161.189 121.588 160.741 121.588 160.272V160.256H119.556C118.766 160.256 118.206 160.395 117.876 160.672C117.556 160.939 117.396 161.275 117.396 161.68C117.396 162.096 117.545 162.432 117.844 162.688C118.153 162.933 118.585 163.056 119.14 163.056ZM126.939 164L123.931 156.064H125.339L127.723 162.704L130.123 156.064H131.499L128.491 164H126.939ZM136.156 164.192C135.399 164.192 134.727 164.021 134.14 163.68C133.554 163.328 133.09 162.843 132.748 162.224C132.418 161.605 132.252 160.875 132.252 160.032C132.252 159.2 132.418 158.475 132.748 157.856C133.079 157.227 133.538 156.741 134.124 156.4C134.722 156.048 135.41 155.872 136.188 155.872C136.956 155.872 137.618 156.048 138.172 156.4C138.738 156.741 139.17 157.195 139.468 157.76C139.767 158.325 139.916 158.933 139.916 159.584C139.916 159.701 139.911 159.819 139.9 159.936C139.9 160.053 139.9 160.187 139.9 160.336H133.58C133.612 160.944 133.751 161.451 133.996 161.856C134.252 162.251 134.567 162.549 134.94 162.752C135.324 162.955 135.73 163.056 136.156 163.056C136.711 163.056 137.175 162.928 137.548 162.672C137.922 162.416 138.194 162.069 138.364 161.632H139.692C139.479 162.368 139.068 162.981 138.46 163.472C137.863 163.952 137.095 164.192 136.156 164.192ZM136.156 157.008C135.516 157.008 134.946 157.205 134.444 157.6C133.954 157.984 133.671 158.549 133.596 159.296H138.588C138.556 158.581 138.311 158.021 137.852 157.616C137.394 157.211 136.828 157.008 136.156 157.008ZM141.698 164V156.064H142.914L142.994 157.488C143.25 156.987 143.618 156.592 144.098 156.304C144.578 156.016 145.122 155.872 145.73 155.872C146.668 155.872 147.415 156.16 147.97 156.736C148.535 157.301 148.818 158.176 148.818 159.36V164H147.474V159.504C147.474 157.851 146.791 157.024 145.426 157.024C144.743 157.024 144.172 157.275 143.714 157.776C143.266 158.267 143.042 158.971 143.042 159.888V164H141.698ZM149.753 155.072L149.545 151.92H150.873L150.681 155.072H149.753ZM155.709 164C154.983 164 154.413 163.824 153.997 163.472C153.581 163.12 153.373 162.485 153.373 161.568V157.2H151.997V156.064H153.373L153.549 154.16H154.717V156.064H157.053V157.2H154.717V161.568C154.717 162.069 154.818 162.411 155.021 162.592C155.223 162.763 155.581 162.848 156.093 162.848H156.925V164H155.709ZM162.995 164V156.064H164.211L164.307 157.216C164.563 156.789 164.904 156.459 165.331 156.224C165.757 155.989 166.237 155.872 166.771 155.872C167.4 155.872 167.939 156 168.387 156.256C168.845 156.512 169.197 156.901 169.443 157.424C169.72 156.944 170.099 156.565 170.579 156.288C171.069 156.011 171.597 155.872 172.163 155.872C173.112 155.872 173.869 156.16 174.435 156.736C175 157.301 175.283 158.176 175.283 159.36V164H173.955V159.504C173.955 158.683 173.789 158.064 173.459 157.648C173.128 157.232 172.653 157.024 172.035 157.024C171.395 157.024 170.861 157.275 170.435 157.776C170.019 158.267 169.811 158.971 169.811 159.888V164H168.467V159.504C168.467 158.683 168.301 158.064 167.971 157.648C167.64 157.232 167.165 157.024 166.547 157.024C165.917 157.024 165.389 157.275 164.963 157.776C164.547 158.267 164.339 158.971 164.339 159.888V164H162.995ZM179.947 164.192C179.286 164.192 178.736 164.08 178.299 163.856C177.862 163.632 177.536 163.333 177.323 162.96C177.11 162.587 177.003 162.181 177.003 161.744C177.003 160.933 177.312 160.309 177.931 159.872C178.55 159.435 179.392 159.216 180.459 159.216H182.603V159.12C182.603 158.427 182.422 157.904 182.059 157.552C181.696 157.189 181.211 157.008 180.603 157.008C180.08 157.008 179.627 157.141 179.243 157.408C178.87 157.664 178.635 158.043 178.539 158.544H177.163C177.216 157.968 177.408 157.483 177.739 157.088C178.08 156.693 178.502 156.395 179.003 156.192C179.504 155.979 180.038 155.872 180.603 155.872C181.712 155.872 182.544 156.171 183.099 156.768C183.664 157.355 183.947 158.139 183.947 159.12V164H182.747L182.667 162.576C182.443 163.024 182.112 163.408 181.675 163.728C181.248 164.037 180.672 164.192 179.947 164.192ZM180.155 163.056C180.667 163.056 181.104 162.923 181.467 162.656C181.84 162.389 182.123 162.043 182.315 161.616C182.507 161.189 182.603 160.741 182.603 160.272V160.256H180.571C179.782 160.256 179.222 160.395 178.891 160.672C178.571 160.939 178.411 161.275 178.411 161.68C178.411 162.096 178.56 162.432 178.859 162.688C179.168 162.933 179.6 163.056 180.155 163.056ZM189.563 164.192C188.774 164.192 188.081 164.011 187.483 163.648C186.897 163.285 186.438 162.789 186.107 162.16C185.787 161.531 185.627 160.816 185.627 160.016C185.627 159.216 185.793 158.507 186.123 157.888C186.454 157.259 186.913 156.768 187.499 156.416C188.086 156.053 188.779 155.872 189.579 155.872C190.23 155.872 190.806 156.005 191.307 156.272C191.809 156.539 192.198 156.912 192.475 157.392V152.48H193.819V164H192.603L192.475 162.688C192.219 163.072 191.851 163.419 191.371 163.728C190.891 164.037 190.289 164.192 189.563 164.192ZM189.707 163.024C190.241 163.024 190.71 162.901 191.115 162.656C191.531 162.4 191.851 162.048 192.075 161.6C192.31 161.152 192.427 160.629 192.427 160.032C192.427 159.435 192.31 158.912 192.075 158.464C191.851 158.016 191.531 157.669 191.115 157.424C190.71 157.168 190.241 157.04 189.707 157.04C189.185 157.04 188.715 157.168 188.299 157.424C187.894 157.669 187.574 158.016 187.339 158.464C187.115 158.912 187.003 159.435 187.003 160.032C187.003 160.629 187.115 161.152 187.339 161.6C187.574 162.048 187.894 162.4 188.299 162.656C188.715 162.901 189.185 163.024 189.707 163.024ZM199.578 164.192C198.821 164.192 198.149 164.021 197.562 163.68C196.976 163.328 196.512 162.843 196.17 162.224C195.84 161.605 195.674 160.875 195.674 160.032C195.674 159.2 195.84 158.475 196.17 157.856C196.501 157.227 196.96 156.741 197.546 156.4C198.144 156.048 198.832 155.872 199.61 155.872C200.378 155.872 201.04 156.048 201.594 156.4C202.16 156.741 202.592 157.195 202.89 157.76C203.189 158.325 203.338 158.933 203.338 159.584C203.338 159.701 203.333 159.819 203.322 159.936C203.322 160.053 203.322 160.187 203.322 160.336H197.002C197.034 160.944 197.173 161.451 197.418 161.856C197.674 162.251 197.989 162.549 198.362 162.752C198.746 162.955 199.152 163.056 199.578 163.056C200.133 163.056 200.597 162.928 200.97 162.672C201.344 162.416 201.616 162.069 201.786 161.632H203.114C202.901 162.368 202.49 162.981 201.882 163.472C201.285 163.952 200.517 164.192 199.578 164.192ZM199.578 157.008C198.938 157.008 198.368 157.205 197.866 157.6C197.376 157.984 197.093 158.549 197.018 159.296H202.01C201.978 158.581 201.733 158.021 201.274 157.616C200.816 157.211 200.25 157.008 199.578 157.008ZM1.968 194.52L3.936 190.232H3.472L0.32 183.064H1.776L4.4 189.24L7.184 183.064H8.576L3.376 194.52H1.968ZM12.8606 191.192C12.114 191.192 11.442 191.021 10.8446 190.68C10.2473 190.339 9.77263 189.859 9.42063 189.24C9.07929 188.611 8.90863 187.875 8.90863 187.032C8.90863 186.189 9.08463 185.459 9.43663 184.84C9.78863 184.211 10.2633 183.725 10.8606 183.384C11.4686 183.043 12.146 182.872 12.8926 182.872C13.6393 182.872 14.3113 183.043 14.9086 183.384C15.506 183.725 15.9753 184.211 16.3166 184.84C16.6686 185.459 16.8446 186.189 16.8446 187.032C16.8446 187.875 16.6686 188.611 16.3166 189.24C15.9646 189.859 15.4846 190.339 14.8766 190.68C14.2793 191.021 13.6073 191.192 12.8606 191.192ZM12.8606 190.04C13.3193 190.04 13.746 189.928 14.1406 189.704C14.5353 189.48 14.8553 189.144 15.1006 188.696C15.346 188.248 15.4686 187.693 15.4686 187.032C15.4686 186.371 15.346 185.816 15.1006 185.368C14.866 184.92 14.5513 184.584 14.1566 184.36C13.762 184.136 13.3406 184.024 12.8926 184.024C12.434 184.024 12.0073 184.136 11.6126 184.36C11.218 184.584 10.898 184.92 10.6526 185.368C10.4073 185.816 10.2846 186.371 10.2846 187.032C10.2846 187.693 10.4073 188.248 10.6526 188.696C10.898 189.144 11.2126 189.48 11.5966 189.704C11.9913 189.928 12.4126 190.04 12.8606 190.04ZM21.6094 191.192C20.6707 191.192 19.924 190.909 19.3694 190.344C18.8147 189.768 18.5374 188.888 18.5374 187.704V183.064H19.8814V187.56C19.8814 189.213 20.5587 190.04 21.9134 190.04C22.6067 190.04 23.1774 189.795 23.6254 189.304C24.084 188.803 24.3134 188.093 24.3134 187.176V183.064H25.6574V191H24.4414L24.3454 189.576C24.1 190.077 23.732 190.472 23.2414 190.76C22.7614 191.048 22.2174 191.192 21.6094 191.192ZM27.8696 191V183.064H29.0856L29.1976 184.584C29.443 184.061 29.8163 183.645 30.3176 183.336C30.819 183.027 31.4376 182.872 32.1736 182.872V184.28H31.8056C31.3363 184.28 30.9043 184.365 30.5096 184.536C30.115 184.696 29.8003 184.973 29.5656 185.368C29.331 185.763 29.2136 186.307 29.2136 187V191H27.8696ZM41.5325 191.192C40.7858 191.192 40.1138 191.021 39.5165 190.68C38.9192 190.339 38.4445 189.859 38.0925 189.24C37.7512 188.611 37.5805 187.875 37.5805 187.032C37.5805 186.189 37.7565 185.459 38.1085 184.84C38.4605 184.211 38.9352 183.725 39.5325 183.384C40.1405 183.043 40.8178 182.872 41.5645 182.872C42.3112 182.872 42.9832 183.043 43.5805 183.384C44.1778 183.725 44.6472 184.211 44.9885 184.84C45.3405 185.459 45.5165 186.189 45.5165 187.032C45.5165 187.875 45.3405 188.611 44.9885 189.24C44.6365 189.859 44.1565 190.339 43.5485 190.68C42.9512 191.021 42.2792 191.192 41.5325 191.192ZM41.5325 190.04C41.9912 190.04 42.4178 189.928 42.8125 189.704C43.2072 189.48 43.5272 189.144 43.7725 188.696C44.0178 188.248 44.1405 187.693 44.1405 187.032C44.1405 186.371 44.0178 185.816 43.7725 185.368C43.5378 184.92 43.2232 184.584 42.8285 184.36C42.4338 184.136 42.0125 184.024 41.5645 184.024C41.1058 184.024 40.6792 184.136 40.2845 184.36C39.8898 184.584 39.5698 184.92 39.3245 185.368C39.0792 185.816 38.9565 186.371 38.9565 187.032C38.9565 187.693 39.0792 188.248 39.3245 188.696C39.5698 189.144 39.8845 189.48 40.2685 189.704C40.6632 189.928 41.0845 190.04 41.5325 190.04ZM47.3853 191V183.064H48.6013L48.7133 184.584C48.9586 184.061 49.3319 183.645 49.8333 183.336C50.3346 183.027 50.9533 182.872 51.6893 182.872V184.28H51.3213C50.8519 184.28 50.4199 184.365 50.0253 184.536C49.6306 184.696 49.3159 184.973 49.0813 185.368C48.8466 185.763 48.7293 186.307 48.7293 187V191H47.3853ZM56.5009 191.192C55.7115 191.192 55.0182 191.011 54.4209 190.648C53.8342 190.285 53.3755 189.789 53.0449 189.16C52.7249 188.531 52.5649 187.816 52.5649 187.016C52.5649 186.216 52.7302 185.507 53.0609 184.888C53.3915 184.259 53.8502 183.768 54.4369 183.416C55.0235 183.053 55.7169 182.872 56.5169 182.872C57.1675 182.872 57.7435 183.005 58.2449 183.272C58.7462 183.539 59.1355 183.912 59.4129 184.392V179.48H60.7569V191H59.5409L59.4129 189.688C59.1569 190.072 58.7889 190.419 58.3089 190.728C57.8289 191.037 57.2262 191.192 56.5009 191.192ZM56.6449 190.024C57.1782 190.024 57.6475 189.901 58.0529 189.656C58.4689 189.4 58.7889 189.048 59.0129 188.6C59.2475 188.152 59.3649 187.629 59.3649 187.032C59.3649 186.435 59.2475 185.912 59.0129 185.464C58.7889 185.016 58.4689 184.669 58.0529 184.424C57.6475 184.168 57.1782 184.04 56.6449 184.04C56.1222 184.04 55.6529 184.168 55.2369 184.424C54.8315 184.669 54.5115 185.016 54.2769 185.464C54.0529 185.912 53.9409 186.435 53.9409 187.032C53.9409 187.629 54.0529 188.152 54.2769 188.6C54.5115 189.048 54.8315 189.4 55.2369 189.656C55.6529 189.901 56.1222 190.024 56.6449 190.024ZM66.5158 191.192C65.7584 191.192 65.0864 191.021 64.4998 190.68C63.9131 190.328 63.4491 189.843 63.1078 189.224C62.7771 188.605 62.6118 187.875 62.6118 187.032C62.6118 186.2 62.7771 185.475 63.1078 184.856C63.4384 184.227 63.8971 183.741 64.4838 183.4C65.0811 183.048 65.7691 182.872 66.5477 182.872C67.3158 182.872 67.9771 183.048 68.5318 183.4C69.0971 183.741 69.5291 184.195 69.8278 184.76C70.1264 185.325 70.2758 185.933 70.2758 186.584C70.2758 186.701 70.2704 186.819 70.2598 186.936C70.2598 187.053 70.2598 187.187 70.2598 187.336H63.9398C63.9718 187.944 64.1104 188.451 64.3558 188.856C64.6118 189.251 64.9264 189.549 65.2998 189.752C65.6838 189.955 66.0891 190.056 66.5158 190.056C67.0704 190.056 67.5344 189.928 67.9078 189.672C68.2811 189.416 68.5531 189.069 68.7238 188.632H70.0518C69.8384 189.368 69.4278 189.981 68.8198 190.472C68.2224 190.952 67.4544 191.192 66.5158 191.192ZM66.5158 184.008C65.8758 184.008 65.3051 184.205 64.8038 184.6C64.3131 184.984 64.0304 185.549 63.9557 186.296H68.9478C68.9158 185.581 68.6704 185.021 68.2118 184.616C67.7531 184.211 67.1878 184.008 66.5158 184.008ZM72.0571 191V183.064H73.2731L73.3851 184.584C73.6305 184.061 74.0038 183.645 74.5051 183.336C75.0065 183.027 75.6251 182.872 76.3611 182.872V184.28H75.9931C75.5238 184.28 75.0918 184.365 74.6971 184.536C74.3025 184.696 73.9878 184.973 73.7531 185.368C73.5185 185.763 73.4011 186.307 73.4011 187V191H72.0571ZM82.968 194.52L84.936 190.232H84.472L81.32 183.064H82.776L85.4 189.24L88.184 183.064H89.576L84.376 194.52H82.968ZM93.8126 191.192C93.0553 191.192 92.3833 191.021 91.7966 190.68C91.21 190.328 90.746 189.843 90.4046 189.224C90.074 188.605 89.9086 187.875 89.9086 187.032C89.9086 186.2 90.074 185.475 90.4046 184.856C90.7353 184.227 91.194 183.741 91.7806 183.4C92.378 183.048 93.066 182.872 93.8446 182.872C94.6126 182.872 95.274 183.048 95.8286 183.4C96.394 183.741 96.826 184.195 97.1246 184.76C97.4233 185.325 97.5726 185.933 97.5726 186.584C97.5726 186.701 97.5673 186.819 97.5566 186.936C97.5566 187.053 97.5566 187.187 97.5566 187.336H91.2366C91.2686 187.944 91.4073 188.451 91.6526 188.856C91.9086 189.251 92.2233 189.549 92.5966 189.752C92.9806 189.955 93.386 190.056 93.8126 190.056C94.3673 190.056 94.8313 189.928 95.2046 189.672C95.578 189.416 95.85 189.069 96.0206 188.632H97.3486C97.1353 189.368 96.7246 189.981 96.1166 190.472C95.5193 190.952 94.7513 191.192 93.8126 191.192ZM93.8126 184.008C93.1726 184.008 92.602 184.205 92.1006 184.6C91.61 184.984 91.3273 185.549 91.2526 186.296H96.2446C96.2126 185.581 95.9673 185.021 95.5086 184.616C95.05 184.211 94.4846 184.008 93.8126 184.008ZM102.224 191C101.499 191 100.928 190.824 100.512 190.472C100.096 190.12 99.8884 189.485 99.8884 188.568V184.2H98.5124V183.064H99.8884L100.064 181.16H101.232V183.064H103.568V184.2H101.232V188.568C101.232 189.069 101.334 189.411 101.536 189.592C101.739 189.763 102.096 189.848 102.608 189.848H103.44V191H102.224ZM105.74 191.08C105.473 191.08 105.249 190.995 105.068 190.824C104.897 190.643 104.812 190.424 104.812 190.168C104.812 189.912 104.897 189.699 105.068 189.528C105.249 189.347 105.473 189.256 105.74 189.256C105.996 189.256 106.209 189.347 106.38 189.528C106.561 189.699 106.652 189.912 106.652 190.168C106.652 190.424 106.561 190.643 106.38 190.824C106.209 190.995 105.996 191.08 105.74 191.08Z" fill="#4A5F73"/>
<path d="M0.453125 108H4.24219L7.89063 114.891H8.04688L11.6953 108H15.4844L9.64844 118.344V124H6.28906V118.344L0.453125 108ZM20.1777 124.234C18.9642 124.234 17.9147 123.977 17.0293 123.461C16.1491 122.94 15.4694 122.216 14.9902 121.289C14.5111 120.357 14.2715 119.276 14.2715 118.047C14.2715 116.807 14.5111 115.724 14.9902 114.797C15.4694 113.865 16.1491 113.141 17.0293 112.625C17.9147 112.104 18.9642 111.844 20.1777 111.844C21.3913 111.844 22.4382 112.104 23.3184 112.625C24.2038 113.141 24.8861 113.865 25.3652 114.797C25.8444 115.724 26.084 116.807 26.084 118.047C26.084 119.276 25.8444 120.357 25.3652 121.289C24.8861 122.216 24.2038 122.94 23.3184 123.461C22.4382 123.977 21.3913 124.234 20.1777 124.234ZM20.1934 121.656C20.7454 121.656 21.2064 121.5 21.5762 121.188C21.946 120.87 22.2246 120.437 22.4121 119.891C22.6048 119.344 22.7012 118.721 22.7012 118.023C22.7012 117.326 22.6048 116.703 22.4121 116.156C22.2246 115.609 21.946 115.177 21.5762 114.859C21.2064 114.542 20.7454 114.383 20.1934 114.383C19.6361 114.383 19.1673 114.542 18.7871 114.859C18.4121 115.177 18.1283 115.609 17.9355 116.156C17.748 116.703 17.6543 117.326 17.6543 118.023C17.6543 118.721 17.748 119.344 17.9355 119.891C18.1283 120.437 18.4121 120.87 18.7871 121.188C19.1673 121.5 19.6361 121.656 20.1934 121.656ZM35.9434 118.891V112H39.2715V124H36.0762V121.82H35.9512C35.6803 122.523 35.2298 123.089 34.5996 123.516C33.9746 123.943 33.2116 124.156 32.3105 124.156C31.5085 124.156 30.8027 123.974 30.1934 123.609C29.584 123.245 29.1074 122.727 28.7637 122.055C28.4251 121.383 28.2533 120.578 28.248 119.641V112H31.5762V119.047C31.5814 119.755 31.7715 120.315 32.1465 120.727C32.5215 121.138 33.0241 121.344 33.6543 121.344C34.0553 121.344 34.4303 121.253 34.7793 121.07C35.1283 120.883 35.4095 120.607 35.623 120.242C35.8418 119.878 35.9486 119.427 35.9434 118.891ZM41.9336 124V112H45.1602V114.094H45.2852C45.5039 113.349 45.8711 112.786 46.3867 112.406C46.9023 112.021 47.4961 111.828 48.168 111.828C48.3346 111.828 48.5143 111.839 48.707 111.859C48.8997 111.88 49.069 111.909 49.2148 111.945V114.898C49.0586 114.852 48.8424 114.81 48.5664 114.773C48.2904 114.737 48.0378 114.719 47.8086 114.719C47.319 114.719 46.8815 114.826 46.4961 115.039C46.1159 115.247 45.8138 115.539 45.5898 115.914C45.3711 116.289 45.2617 116.721 45.2617 117.211V124H41.9336ZM70.207 113.602H66.7852C66.7227 113.159 66.5951 112.766 66.4023 112.422C66.2096 112.073 65.9622 111.776 65.6602 111.531C65.3581 111.286 65.0091 111.099 64.6133 110.969C64.2227 110.839 63.7982 110.773 63.3398 110.773C62.5117 110.773 61.7904 110.979 61.1758 111.391C60.5612 111.797 60.0846 112.391 59.7461 113.172C59.4076 113.948 59.2383 114.891 59.2383 116C59.2383 117.141 59.4076 118.099 59.7461 118.875C60.0898 119.651 60.569 120.237 61.1836 120.633C61.7982 121.029 62.5091 121.227 63.3164 121.227C63.7695 121.227 64.1888 121.167 64.5742 121.047C64.9648 120.927 65.3112 120.753 65.6133 120.523C65.9154 120.289 66.1654 120.005 66.3633 119.672C66.5664 119.339 66.707 118.958 66.7852 118.531L70.207 118.547C70.1185 119.281 69.8971 119.99 69.543 120.672C69.194 121.349 68.7227 121.956 68.1289 122.492C67.5404 123.023 66.8372 123.445 66.0195 123.758C65.207 124.065 64.2878 124.219 63.2617 124.219C61.8346 124.219 60.5586 123.896 59.4336 123.25C58.3138 122.604 57.4284 121.669 56.7773 120.445C56.1315 119.221 55.8086 117.74 55.8086 116C55.8086 114.255 56.1367 112.771 56.793 111.547C57.4492 110.323 58.3398 109.391 59.4648 108.75C60.5898 108.104 61.8555 107.781 63.2617 107.781C64.1888 107.781 65.0482 107.911 65.8398 108.172C66.6367 108.432 67.3424 108.812 67.957 109.312C68.5716 109.807 69.0716 110.414 69.457 111.133C69.8477 111.852 70.0977 112.674 70.207 113.602ZM75.9922 124.227C75.2266 124.227 74.5443 124.094 73.9453 123.828C73.3464 123.557 72.8724 123.159 72.5234 122.633C72.1797 122.102 72.0078 121.44 72.0078 120.648C72.0078 119.982 72.1302 119.422 72.375 118.969C72.6198 118.516 72.9531 118.151 73.375 117.875C73.7969 117.599 74.276 117.391 74.8125 117.25C75.3542 117.109 75.9219 117.01 76.5156 116.953C77.2135 116.88 77.776 116.812 78.2031 116.75C78.6302 116.682 78.9401 116.583 79.1328 116.453C79.3255 116.323 79.4219 116.13 79.4219 115.875V115.828C79.4219 115.333 79.2656 114.951 78.9531 114.68C78.6458 114.409 78.2083 114.273 77.6406 114.273C77.0417 114.273 76.5651 114.406 76.2109 114.672C75.8568 114.932 75.6224 115.26 75.5078 115.656L72.4297 115.406C72.5859 114.677 72.8932 114.047 73.3516 113.516C73.8099 112.979 74.401 112.568 75.125 112.281C75.8542 111.99 76.6979 111.844 77.6563 111.844C78.3229 111.844 78.9609 111.922 79.5703 112.078C80.1849 112.234 80.7292 112.477 81.2031 112.805C81.6823 113.133 82.0599 113.555 82.3359 114.07C82.612 114.581 82.75 115.193 82.75 115.906V124H79.5938V122.336H79.5C79.3073 122.711 79.0495 123.042 78.7266 123.328C78.4036 123.609 78.0156 123.831 77.5625 123.992C77.1094 124.148 76.5859 124.227 75.9922 124.227ZM76.9453 121.93C77.4349 121.93 77.8672 121.833 78.2422 121.641C78.6172 121.443 78.9115 121.177 79.125 120.844C79.3385 120.51 79.4453 120.133 79.4453 119.711V118.438C79.3411 118.505 79.1979 118.568 79.0156 118.625C78.8385 118.677 78.638 118.727 78.4141 118.773C78.1901 118.815 77.9661 118.854 77.7422 118.891C77.5182 118.922 77.3151 118.951 77.1328 118.977C76.7422 119.034 76.401 119.125 76.1094 119.25C75.8177 119.375 75.5911 119.544 75.4297 119.758C75.2682 119.966 75.1875 120.227 75.1875 120.539C75.1875 120.992 75.3516 121.339 75.6797 121.578C76.013 121.812 76.4349 121.93 76.9453 121.93ZM85.332 124V112H88.5586V114.094H88.6836C88.9023 113.349 89.2695 112.786 89.7852 112.406C90.3008 112.021 90.8945 111.828 91.5664 111.828C91.7331 111.828 91.9128 111.839 92.1055 111.859C92.2982 111.88 92.4674 111.909 92.6133 111.945V114.898C92.457 114.852 92.2409 114.81 91.9648 114.773C91.6888 114.737 91.4362 114.719 91.207 114.719C90.7174 114.719 90.2799 114.826 89.8945 115.039C89.5143 115.247 89.2122 115.539 88.9883 115.914C88.7695 116.289 88.6602 116.721 88.6602 117.211V124H85.332ZM101.318 112V114.5H94.0918V112H101.318ZM95.7324 109.125H99.0605V120.312C99.0605 120.62 99.1074 120.859 99.2012 121.031C99.2949 121.198 99.4251 121.315 99.5918 121.383C99.7637 121.451 99.9616 121.484 100.186 121.484C100.342 121.484 100.498 121.471 100.654 121.445C100.811 121.414 100.93 121.391 101.014 121.375L101.537 123.852C101.37 123.904 101.136 123.964 100.834 124.031C100.532 124.104 100.165 124.148 99.7324 124.164C98.9303 124.195 98.2272 124.089 97.623 123.844C97.0241 123.599 96.5579 123.219 96.2246 122.703C95.8913 122.187 95.7272 121.536 95.7324 120.75V109.125ZM112.023 108V124H108.641V108H112.023ZM124.729 115.422L121.682 115.609C121.63 115.349 121.518 115.115 121.346 114.906C121.174 114.693 120.947 114.523 120.666 114.398C120.39 114.268 120.059 114.203 119.674 114.203C119.158 114.203 118.723 114.312 118.369 114.531C118.015 114.745 117.838 115.031 117.838 115.391C117.838 115.677 117.952 115.919 118.182 116.117C118.411 116.315 118.804 116.474 119.361 116.594L121.533 117.031C122.7 117.271 123.57 117.656 124.143 118.187C124.715 118.719 125.002 119.417 125.002 120.281C125.002 121.068 124.77 121.758 124.307 122.352C123.848 122.945 123.218 123.409 122.416 123.742C121.619 124.07 120.7 124.234 119.658 124.234C118.07 124.234 116.804 123.904 115.861 123.242C114.924 122.576 114.374 121.669 114.213 120.523L117.486 120.352C117.585 120.836 117.825 121.206 118.205 121.461C118.585 121.711 119.072 121.836 119.666 121.836C120.249 121.836 120.718 121.724 121.072 121.5C121.432 121.271 121.614 120.977 121.619 120.617C121.614 120.315 121.486 120.068 121.236 119.875C120.986 119.677 120.601 119.526 120.08 119.422L118.002 119.008C116.83 118.773 115.958 118.367 115.385 117.789C114.817 117.211 114.533 116.474 114.533 115.578C114.533 114.807 114.742 114.143 115.158 113.586C115.58 113.029 116.171 112.599 116.932 112.297C117.697 111.995 118.593 111.844 119.619 111.844C121.135 111.844 122.327 112.164 123.197 112.805C124.072 113.445 124.583 114.318 124.729 115.422ZM132.252 124V108H143.033V110.789H135.635V114.602H142.479V117.391H135.635V121.211H143.064V124H132.252ZM145.66 124V112H148.832V114.117H148.973C149.223 113.414 149.639 112.859 150.223 112.453C150.806 112.047 151.504 111.844 152.316 111.844C153.139 111.844 153.84 112.049 154.418 112.461C154.996 112.867 155.382 113.419 155.574 114.117H155.699C155.944 113.43 156.387 112.88 157.027 112.469C157.673 112.052 158.436 111.844 159.316 111.844C160.436 111.844 161.345 112.201 162.043 112.914C162.746 113.622 163.098 114.628 163.098 115.93V124H159.777V116.586C159.777 115.919 159.6 115.419 159.246 115.086C158.892 114.753 158.449 114.586 157.918 114.586C157.314 114.586 156.842 114.779 156.504 115.164C156.165 115.544 155.996 116.047 155.996 116.672V124H152.77V116.516C152.77 115.927 152.6 115.458 152.262 115.109C151.928 114.76 151.488 114.586 150.941 114.586C150.572 114.586 150.238 114.68 149.941 114.867C149.65 115.049 149.418 115.307 149.246 115.641C149.074 115.969 148.988 116.354 148.988 116.797V124H145.66ZM165.727 128.5V112H169.008V114.016H169.156C169.302 113.693 169.513 113.365 169.789 113.031C170.07 112.693 170.435 112.411 170.883 112.188C171.336 111.958 171.898 111.844 172.57 111.844C173.445 111.844 174.253 112.073 174.992 112.531C175.732 112.984 176.323 113.669 176.766 114.586C177.208 115.497 177.43 116.641 177.43 118.016C177.43 119.354 177.214 120.484 176.781 121.406C176.354 122.323 175.771 123.018 175.031 123.492C174.297 123.961 173.474 124.195 172.562 124.195C171.917 124.195 171.367 124.089 170.914 123.875C170.466 123.661 170.099 123.393 169.812 123.07C169.526 122.742 169.307 122.411 169.156 122.078H169.055V128.5H165.727ZM168.984 118C168.984 118.714 169.083 119.336 169.281 119.867C169.479 120.398 169.766 120.812 170.141 121.109C170.516 121.401 170.971 121.547 171.508 121.547C172.049 121.547 172.508 121.398 172.883 121.102C173.258 120.799 173.542 120.383 173.734 119.852C173.932 119.315 174.031 118.698 174.031 118C174.031 117.307 173.935 116.698 173.742 116.172C173.549 115.646 173.266 115.234 172.891 114.937C172.516 114.641 172.055 114.492 171.508 114.492C170.966 114.492 170.508 114.635 170.133 114.922C169.763 115.208 169.479 115.615 169.281 116.141C169.083 116.667 168.984 117.286 168.984 118ZM186.031 112V114.5H178.805V112H186.031ZM180.445 109.125H183.773V120.312C183.773 120.62 183.82 120.859 183.914 121.031C184.008 121.198 184.138 121.315 184.305 121.383C184.477 121.451 184.674 121.484 184.898 121.484C185.055 121.484 185.211 121.471 185.367 121.445C185.523 121.414 185.643 121.391 185.727 121.375L186.25 123.852C186.083 123.904 185.849 123.964 185.547 124.031C185.245 124.104 184.878 124.148 184.445 124.164C183.643 124.195 182.94 124.089 182.336 123.844C181.737 123.599 181.271 123.219 180.938 122.703C180.604 122.187 180.44 121.536 180.445 120.75V109.125ZM190.254 128.5C189.832 128.5 189.436 128.466 189.066 128.398C188.702 128.336 188.4 128.255 188.16 128.156L188.91 125.672C189.301 125.792 189.652 125.857 189.965 125.867C190.283 125.878 190.556 125.805 190.785 125.648C191.02 125.492 191.21 125.227 191.355 124.852L191.551 124.344L187.246 112H190.746L193.23 120.812H193.355L195.863 112H199.387L194.723 125.297C194.499 125.943 194.194 126.505 193.809 126.984C193.428 127.469 192.947 127.841 192.363 128.102C191.78 128.367 191.077 128.5 190.254 128.5ZM205.066 108L204.762 119.203H201.902L201.59 108H205.066ZM203.332 124.203C202.816 124.203 202.374 124.021 202.004 123.656C201.634 123.286 201.452 122.844 201.457 122.328C201.452 121.818 201.634 121.38 202.004 121.016C202.374 120.651 202.816 120.469 203.332 120.469C203.827 120.469 204.262 120.651 204.637 121.016C205.012 121.38 205.202 121.818 205.207 122.328C205.202 122.672 205.111 122.987 204.934 123.273C204.762 123.555 204.535 123.781 204.254 123.953C203.973 124.12 203.665 124.203 203.332 124.203Z" fill="#142535"/>
<circle cx="35" cy="35" r="34" stroke="#142535" stroke-width="2"/>
<path d="M27 21.6665L23 26.9998V45.6665C23 46.3737 23.281 47.052 23.781 47.5521C24.2811 48.0522 24.9594 48.3332 25.6667 48.3332H44.3333C45.0406 48.3332 45.7189 48.0522 46.219 47.5521C46.719 47.052 47 46.3737 47 45.6665V26.9998L43 21.6665H27Z" fill="#DBE9F5" stroke="#142535" stroke-width="2" stroke-linecap="round" stroke-linejoin="round"/>
<path d="M23 27H47" stroke="#142535" stroke-width="2" stroke-linecap="round" stroke-linejoin="round"/>
<path d="M40.3333 32.3335C40.3333 33.748 39.7714 35.1045 38.7712 36.1047C37.771 37.1049 36.4145 37.6668 35 37.6668C33.5855 37.6668 32.229 37.1049 31.2288 36.1047C30.2286 35.1045 29.6667 33.748 29.6667 32.3335" stroke="#142535" stroke-width="2" stroke-linecap="round" stroke-linejoin="round"/>
</svg>
