<svg width="14" height="13" viewBox="0 0 14 13" fill="none" xmlns="http://www.w3.org/2000/svg">
<path d="M12.8609 1.07455C12.5204 0.733887 12.1161 0.463648 11.6711 0.279273C11.2261 0.0948981 10.7492 0 10.2675 0C9.78587 0 9.30893 0.0948981 8.86396 0.279273C8.41899 0.463648 8.0147 0.733887 7.6742 1.07455L6.96753 1.78122L6.26086 1.07455C5.57307 0.386756 4.64022 0.000356508 3.66753 0.000356515C2.69484 0.000356523 1.76199 0.386756 1.07419 1.07455C0.386399 1.76235 7.2471e-09 2.69519 0 3.66788C-7.2471e-09 4.64057 0.386399 5.57342 1.07419 6.26122L1.78086 6.96788L6.96753 12.1546L12.1542 6.96788L12.8609 6.26122C13.2015 5.92071 13.4718 5.51643 13.6561 5.07145C13.8405 4.62648 13.9354 4.14954 13.9354 3.66788C13.9354 3.18623 13.8405 2.70929 13.6561 2.26431C13.4718 1.81934 13.2015 1.41505 12.8609 1.07455Z" fill="#142535"/>
</svg>
