<svg width="101" height="140" viewBox="0 0 101 140" fill="none" xmlns="http://www.w3.org/2000/svg">
<path d="M5.38187 132.67L5.36909 130.337H5.70147L9.6134 126.182H11.9018L7.44011 130.912H7.13968L5.38187 132.67ZM3.62406 136V122.909H5.53528V136H3.62406ZM9.82434 136L6.30872 131.334L7.62548 129.998L12.1702 136H9.82434ZM21.9008 136.217C21.2787 136.217 20.7162 136.102 20.2133 135.872C19.7105 135.638 19.3121 135.299 19.018 134.856C18.7282 134.413 18.5834 133.869 18.5834 133.226C18.5834 132.672 18.6899 132.216 18.903 131.858C19.116 131.5 19.4037 131.217 19.7659 131.008C20.1281 130.799 20.5329 130.641 20.9804 130.535C21.4278 130.428 21.8838 130.347 22.3483 130.292C22.9363 130.224 23.4136 130.168 23.7801 130.126C24.1466 130.079 24.4129 130.004 24.5791 129.902C24.7453 129.8 24.8284 129.634 24.8284 129.403V129.359C24.8284 128.8 24.6707 128.368 24.3554 128.061C24.0443 127.754 23.5798 127.601 22.9619 127.601C22.3184 127.601 21.8113 127.744 21.4406 128.029C21.0741 128.31 20.8206 128.624 20.68 128.969L18.8838 128.56C19.0969 127.963 19.4079 127.482 19.817 127.115C20.2304 126.744 20.7055 126.476 21.2425 126.31C21.7794 126.139 22.344 126.054 22.9363 126.054C23.3284 126.054 23.7439 126.101 24.1828 126.195C24.626 126.284 25.0393 126.45 25.4228 126.693C25.8106 126.936 26.1281 127.283 26.3753 127.735C26.6224 128.183 26.746 128.764 26.746 129.48V136H24.8795V134.658H24.8028C24.6792 134.905 24.4939 135.148 24.2467 135.386C23.9996 135.625 23.6821 135.823 23.2943 135.981C22.9065 136.138 22.442 136.217 21.9008 136.217ZM22.3163 134.683C22.8447 134.683 23.2964 134.579 23.6714 134.37C24.0507 134.161 24.3383 133.888 24.5344 133.552C24.7346 133.211 24.8348 132.847 24.8348 132.459V131.193C24.7666 131.261 24.6345 131.325 24.4385 131.385C24.2467 131.44 24.0273 131.489 23.7801 131.532C23.5329 131.57 23.2922 131.607 23.0578 131.641C22.8234 131.67 22.6274 131.696 22.4697 131.717C22.099 131.764 21.7602 131.843 21.4534 131.954C21.1508 132.065 20.9079 132.224 20.7247 132.433C20.5457 132.638 20.4562 132.911 20.4562 133.251C20.4562 133.724 20.6309 134.082 20.9804 134.325C21.3298 134.564 21.7751 134.683 22.3163 134.683ZM42.0489 128.579L40.3166 128.886C40.2442 128.664 40.1291 128.453 39.9715 128.253C39.8181 128.053 39.6092 127.888 39.345 127.761C39.0808 127.633 38.7506 127.569 38.3543 127.569C37.8131 127.569 37.3614 127.69 36.9992 127.933C36.6369 128.172 36.4558 128.481 36.4558 128.86C36.4558 129.188 36.5773 129.452 36.8202 129.653C37.0631 129.853 37.4551 130.017 37.9963 130.145L39.556 130.503C40.4594 130.712 41.1327 131.033 41.5759 131.468C42.019 131.903 42.2406 132.467 42.2406 133.162C42.2406 133.75 42.0702 134.274 41.7293 134.734C41.3926 135.19 40.9217 135.548 40.3166 135.808C39.7158 136.068 39.019 136.198 38.2264 136.198C37.127 136.198 36.23 135.964 35.5354 135.495C34.8408 135.022 34.4146 134.351 34.257 133.482L36.1043 133.2C36.2193 133.682 36.4558 134.046 36.8138 134.293C37.1717 134.536 37.6384 134.658 38.2137 134.658C38.8401 134.658 39.3408 134.528 39.7158 134.268C40.0908 134.004 40.2783 133.682 40.2783 133.303C40.2783 132.996 40.1632 132.738 39.9331 132.529C39.7073 132.32 39.36 132.163 38.8912 132.056L37.2293 131.692C36.3131 131.483 35.6355 131.151 35.1966 130.695C34.7619 130.239 34.5446 129.661 34.5446 128.962C34.5446 128.383 34.7065 127.876 35.0304 127.441C35.3543 127.006 35.8017 126.668 36.3727 126.425C36.9438 126.178 37.5979 126.054 38.3351 126.054C39.3962 126.054 40.2314 126.284 40.8408 126.744C41.4502 127.2 41.8529 127.812 42.0489 128.579ZM54.3251 126.182V127.716H48.9622V126.182H54.3251ZM50.4004 123.83H52.3116V133.117C52.3116 133.488 52.367 133.767 52.4778 133.955C52.5886 134.138 52.7314 134.263 52.9061 134.332C53.0851 134.396 53.279 134.428 53.4878 134.428C53.6412 134.428 53.7754 134.417 53.8905 134.396C54.0055 134.374 54.095 134.357 54.1589 134.344L54.5041 135.923C54.3933 135.966 54.2356 136.009 54.0311 136.051C53.8265 136.098 53.5709 136.124 53.264 136.128C52.7612 136.136 52.2925 136.047 51.8578 135.859C51.4231 135.672 51.0716 135.382 50.8031 134.99C50.5346 134.598 50.4004 134.106 50.4004 133.513V123.83ZM65.9654 136.198C64.998 136.198 64.1649 135.991 63.4661 135.578C62.7715 135.161 62.2345 134.575 61.8553 133.82C61.4803 133.062 61.2928 132.173 61.2928 131.155C61.2928 130.149 61.4803 129.263 61.8553 128.496C62.2345 127.729 62.7629 127.13 63.4405 126.7C64.1223 126.269 64.9192 126.054 65.8311 126.054C66.3851 126.054 66.922 126.146 67.4419 126.329C67.9618 126.512 68.4284 126.8 68.8418 127.192C69.2551 127.584 69.5811 128.093 69.8198 128.719C70.0584 129.342 70.1777 130.098 70.1777 130.989V131.666H62.373V130.234H68.3048C68.3048 129.732 68.2026 129.286 67.998 128.898C67.7935 128.506 67.5058 128.197 67.1351 127.972C66.7686 127.746 66.3382 127.633 65.8439 127.633C65.307 127.633 64.8382 127.765 64.4377 128.029C64.0414 128.289 63.7345 128.63 63.5172 129.052C63.3041 129.469 63.1976 129.923 63.1976 130.413V131.532C63.1976 132.188 63.3127 132.746 63.5428 133.207C63.7771 133.667 64.1031 134.018 64.5208 134.261C64.9384 134.5 65.4263 134.619 65.9845 134.619C66.3467 134.619 66.677 134.568 66.9753 134.466C67.2736 134.359 67.5314 134.202 67.7487 133.993C67.9661 133.784 68.1323 133.526 68.2473 133.219L70.0563 133.545C69.9114 134.078 69.6514 134.545 69.2764 134.945C68.9057 135.342 68.4391 135.651 67.8766 135.872C67.3183 136.089 66.6813 136.198 65.9654 136.198ZM79.6095 122.909V136H77.6983V122.909H79.6095ZM89.4919 122.909V136H87.5807V122.909H89.4919ZM97.4631 136V126.182H99.3743V136H97.4631ZM98.4283 124.667C98.0959 124.667 97.8104 124.556 97.5718 124.335C97.3374 124.109 97.2202 123.84 97.2202 123.529C97.2202 123.214 97.3374 122.945 97.5718 122.724C97.8104 122.498 98.0959 122.385 98.4283 122.385C98.7607 122.385 99.0441 122.498 99.2785 122.724C99.5171 122.945 99.6364 123.214 99.6364 123.529C99.6364 123.84 99.5171 124.109 99.2785 124.335C99.0441 124.556 98.7607 124.667 98.4283 124.667Z" fill="#142535"/>
<path d="M26.1187 13.2762L26.7581 13.0022C27.087 12.9474 27.3062 13.0205 27.3975 13.2762L27.4889 13.4772C27.7811 14.1896 27.9273 22.4468 27.9273 38.2306L27.8359 51.1279C34.1567 44.2225 40.3679 36.0201 46.4512 26.5207C49.3376 21.6248 52.1874 16.0713 55.0007 9.86007L56.3526 9.31203C56.6814 9.22069 56.8823 9.29376 56.992 9.54952L57.0833 9.76873C53.795 17.4962 49.9587 24.639 45.6109 31.2156C41.1534 37.7556 35.2528 45.2455 27.8725 53.7037L28.2561 54.6171C34.2481 56.3526 42.8159 59.0745 53.9777 62.7647C58.015 63.8243 72.1545 67.1856 96.3964 72.8122L96.4695 72.9949L96.8531 72.6113C97.9857 72.1363 99.3559 72.7757 100.945 74.4929C101.073 74.7852 101 74.9679 100.726 75.0775L100.032 75.3698C99.3559 75.6438 96.8166 75.0775 92.4139 73.616C69.7249 68.4461 55.4757 65.0665 49.6664 63.4772C41.8111 60.8283 34.5769 58.49 27.9456 56.4622L27.7629 56.5353C27.909 59.4034 27.9456 69.6884 27.8177 87.3719C27.7994 93.7475 27.5254 97.0358 27.0322 97.2368L26.3928 97.4925L25.2053 97.73L24.1092 95.0811C24.0179 94.8619 24.4746 94.3139 25.4794 93.4735C25.6438 83.0607 25.662 70.62 25.5342 56.1699L25.2967 56.2612C23.6525 57.9967 22.1545 59.1293 20.8027 59.6774C20.0537 59.988 19.3961 59.8966 18.8845 59.4399L18.7019 58.9832C18.0442 56.6814 18.6288 55.1469 20.4556 54.3979L21.095 54.1421C22.9218 53.722 24.2919 53.6854 25.1871 54.0325C25.6438 53.8498 25.7168 52.6259 25.4246 50.3241C25.6986 48.479 25.7168 36.8239 25.4428 15.3588L24.913 15.2857C24.84 14.2992 25.2419 13.6233 26.1187 13.2762ZM20.9123 55.5122C20.6931 56.7179 20.6931 57.5766 20.894 58.0881L21.1315 57.9785L23.7256 55.6219L23.6343 55.4209C22.1363 55.3478 21.2229 55.3844 20.9123 55.5122Z" fill="#142535"/>
<path fill-rule="evenodd" clip-rule="evenodd" d="M46 2C21.6995 2 2 21.6995 2 46C2 61.6246 10.1433 75.3479 22.422 83.1562C22.888 83.4525 23.0256 84.0706 22.7292 84.5366C22.4329 85.0026 21.8148 85.1402 21.3488 84.8438C8.51725 76.684 0 62.337 0 46C0 20.5949 20.5949 0 46 0C71.4051 0 92 20.5949 92 46C92 53.5459 90.1823 60.6703 86.9599 66.9562C86.708 67.4477 86.1053 67.6418 85.6138 67.3899C85.1224 67.1379 84.9282 66.5353 85.1801 66.0438C88.2611 60.0337 90 53.2214 90 46C90 21.6995 70.3005 2 46 2ZM81.629 73.5093C82.0584 73.8567 82.1248 74.4864 81.7774 74.9157C73.3459 85.3353 60.4509 92 46 92C40.6254 92 35.464 91.0778 30.6668 89.3823C30.146 89.1982 29.8731 88.6269 30.0572 88.1062C30.2412 87.5854 30.8125 87.3125 31.3332 87.4966C35.9194 89.1175 40.8556 90 46 90C59.8218 90 72.1546 83.6281 80.2226 73.6576C80.57 73.2283 81.1997 73.1619 81.629 73.5093Z" fill="#142535"/>
</svg>
