<svg width="14" height="14" viewBox="0 0 14 14" fill="none" xmlns="http://www.w3.org/2000/svg">
<path fill-rule="evenodd" clip-rule="evenodd" d="M6.41667 2.1875C4.08096 2.1875 2.1875 4.08096 2.1875 6.41667C2.1875 8.75237 4.08096 10.6458 6.41667 10.6458C8.75237 10.6458 10.6458 8.75237 10.6458 6.41667C10.6458 4.08096 8.75237 2.1875 6.41667 2.1875ZM1.3125 6.41667C1.3125 3.59771 3.59771 1.3125 6.41667 1.3125C9.23562 1.3125 11.5208 3.59771 11.5208 6.41667C11.5208 9.23562 9.23562 11.5208 6.41667 11.5208C3.59771 11.5208 1.3125 9.23562 1.3125 6.41667Z" fill="#4A5F73"/>
<path fill-rule="evenodd" clip-rule="evenodd" d="M9.30002 9.3C9.52783 9.0722 9.89717 9.0722 10.125 9.3L12.6625 11.8375C12.8903 12.0653 12.8903 12.4347 12.6625 12.6625C12.4347 12.8903 12.0653 12.8903 11.8375 12.6625L9.30002 10.125C9.07221 9.89716 9.07221 9.52781 9.30002 9.3Z" fill="#4A5F73"/>
</svg>
